<svg xmlns="http://www.w3.org/2000/svg" viewBox="0 0 512 512" role="img" aria-label="String Lab icon">
  <rect width="512" height="512" rx="88" fill="#111827"/>
  <path d="M142 118h228c34 0 62 28 62 62v152c0 34-28 62-62 62H142c-34 0-62-28-62-62V180c0-34 28-62 62-62Z" fill="#fbfaf6"/>
  <path d="M104 193h304M104 232h304M104 271h304M104 310h304" stroke="#6b7280" stroke-width="10" stroke-linecap="round"/>
  <path d="M161 118v276M214 118v276M267 118v276M320 118v276M373 134v244" stroke="#111827" stroke-width="8" stroke-linecap="round"/>
  <circle cx="214" cy="232" r="23" fill="#78b7ff"/>
  <circle cx="267" cy="193" r="23" fill="#f59e0b"/>
  <circle cx="320" cy="310" r="23" fill="#0f766e"/>
  <path d="M154 435h204" stroke="#f59e0b" stroke-width="18" stroke-linecap="round"/>
  <text x="256" y="466" text-anchor="middle" font-family="system-ui, -apple-system, Segoe UI, sans-serif" font-size="44" font-weight="900" fill="#ffffff">SL</text>
</svg>
